<svg width="3000" height="1915" viewBox="0 0 3000 1915" fill="none" xmlns="http://www.w3.org/2000/svg">
<path d="M1791.91 528.969L1823.11 498.772C1813.35 444.201 1762.14 417.918 1728.42 414.349C1637.61 404.703 1591.32 467.144 1571.85 567.272C1536.29 750.038 1581.05 1517.47 1581.05 1517.47C1584.41 1497.08 1831.03 726.412 1824.71 514.674L1791.91 528.969" fill="#96D9C9"/>
<path d="M550.627 1131.6L546.76 1160.23L537.493 1127.11C511.453 1118.91 488.824 1116.09 470.895 1120.17C310.668 1156.59 587.547 1376.95 587.547 1376.95C587.547 1376.95 499.304 1321.55 413.845 1286.47L412.76 1315.49L401.829 1282.69C335.424 1256.71 273.817 1244.69 261.507 1282.23C249.917 1317.56 273.24 1351 313.373 1380.79L359.507 1382.4L332.312 1393.81C424.996 1453.17 578.32 1495.64 631.24 1505.29C580.613 1497.35 456.848 1481.24 383.499 1497.07L395.009 1516.23L366.045 1501.75C340.372 1510.03 324.427 1523.73 326.144 1545.32C329.427 1586.6 508.52 1601.47 508.52 1601.47L1162.79 1595.39L1166.43 1597.21C1166.43 1597.21 761.547 1208.87 550.627 1131.6" fill="#3C8F7C"/>
<path d="M2603.03 1513.45C2590.4 1454.86 2462.28 1437.64 2298.95 1469.76C2357.11 1449.89 2437 1404.65 2478.38 1383.99L2450.07 1365.97L2506.92 1368.62C2553.4 1341.4 2576.65 1314.66 2561.46 1290.48C2550.12 1272.42 2525.23 1264.9 2491.52 1265L2473.74 1296.79L2477.43 1265.44C2392.36 1270.36 2373.06 1256.47 2258.29 1302.85C2330.01 1265.63 2340.37 1254.08 2345.07 1239.13L2306.24 1222.13H2351.75C2388.55 1182.56 2446.92 1104.25 2422.7 1068.17C2402.72 1038.38 2315.03 1079.72 2259.03 1101.2L2235.22 1154.77L2240.05 1109C2062.05 1186.53 2122.37 1124.32 2122.37 1124.32C2122.37 1124.32 2308.18 739.947 2198.73 748.587C2155.51 751.999 2109.05 778.044 2063.41 819.77L2062.24 857.983L2048.66 833.73C2015.44 866.316 1982.52 905.784 1951.1 948.143C1993.7 858.663 2026.01 770.773 2029.21 705.336L1996.69 701.393L2028.79 679.07C2025.78 646.008 2012.67 621.005 1986.16 607.786C1945.44 587.512 1902.75 618.187 1860.69 679.149L1871.07 734.167L1844.97 703.34C1694.41 948.745 1556.74 1552.89 1556.74 1552.89L1545.83 1585.67L1988.17 1607.51C1988.17 1607.51 2628.51 1631.81 2603.03 1513.45Z" fill="#50BFA5"/>
<path d="M1952.48 1350.11H914.978C875.357 1350.11 843.238 1320.97 843.238 1285.01V1246.31C843.238 1210.36 875.357 1181.21 914.978 1181.21H1952.48C1905.02 1228.27 1904.2 1300.2 1950.57 1348.15L1952.48 1350.11Z" fill="#86B1F2"/>
<path d="M1937.95 1200.56H1415.86C1379.91 1200.56 1350.75 1229.71 1350.75 1265.67C1350.75 1301.61 1379.91 1330.76 1415.86 1330.76H1937.98C1913.59 1290.83 1913.64 1240.4 1937.95 1200.56Z" fill="#FAE0B2"/>
<path d="M1905.76 996.573C1908.04 992.666 1904.59 988.147 1899.34 988.147H1073.08C1008.32 988.147 955.832 1031.47 955.832 1084.91C955.832 1138.36 1008.32 1181.68 1073.08 1181.68H1899.56C1904.84 1181.68 1908.29 1177.13 1906 1173.21C1873.28 1117.28 1873.36 1052.25 1905.76 996.573" fill="#355389"/>
<path d="M1899.17 1008.97H1344.82C1303.87 1008.97 1270.67 1042.16 1270.67 1083.12V1088.68C1270.67 1129.63 1303.87 1162.83 1344.82 1162.83H1900.36C1875.51 1113.52 1875.25 1058.25 1899.17 1008.97Z" fill="#FAE0B2"/>
<path d="M900.205 979.549H1433.43C1480.71 979.549 1519.05 938.216 1519.05 887.23C1519.05 836.23 1480.71 794.899 1433.43 794.899H900.205C940.975 846.084 942.556 921.162 904.016 974.309L900.205 979.549Z" fill="#FAE0B2"/>
<path d="M1512.03 887.223C1512.03 836.223 1473.26 794.892 1425.43 794.892H890.53C888.033 794.892 886.01 792.722 886.026 790.062C886.059 787.439 888.066 785.326 890.53 785.326H1739.08C1791.86 785.326 1834.66 830.943 1834.66 887.223C1834.66 943.491 1791.86 989.118 1739.08 989.118H890.53C888.066 989.118 886.059 986.997 886.026 984.371C886.01 981.716 888.033 979.545 890.53 979.545H1425.43C1473.26 979.545 1512.03 938.211 1512.03 887.223Z" fill="#466EB6"/>
<path d="M1549.82 1086.51H1492.75C1480.49 1086.51 1470.54 1090.31 1470.54 1095V1095.76H1549.82V1086.51Z" fill="#FF4C16"/>
<path d="M1598.5 1107.82C1598.5 1096.05 1583.59 1086.5 1565.21 1086.5H1491.98C1505.93 1086.5 1517.23 1093.74 1517.23 1102.66L1516.89 1331.17L1557.35 1301.78L1598.59 1331.17L1598.5 1107.82Z" fill="#F47458"/>
<path d="M2379.06 1349.77H837.456C789.588 1349.77 750.775 1388.57 750.775 1436.44V1509.36C750.775 1557.22 789.588 1596.04 837.456 1596.04H2379.06L2378.25 1595.2C2312.3 1526.55 2312.66 1417.97 2379.06 1349.77" fill="#B75742"/>
<path d="M2351.76 1386.23H1527.65C1479.79 1386.23 1440.97 1425.03 1440.97 1472.91C1440.97 1520.77 1479.79 1559.59 1527.65 1559.59H2351.74C2321.46 1505.91 2321.51 1439.85 2351.76 1386.23" fill="#FAE0B2"/>
<path d="M1947.13 1473.35H1880.29C1865.92 1473.35 1854.26 1485 1854.26 1499.37V1501.71H1947.13V1473.35Z" fill="#13375B"/>
<path d="M1883.04 1473.45C1899.01 1473.44 1922.85 1486.96 1936.33 1503.64L2094.83 1700.24L2187.96 1700.19L2037.18 1513.21C2019.45 1491.21 1987.99 1473.38 1966.92 1473.4L1883.04 1473.45" fill="#355389"/>
<path d="M488.026 1574.45L520.506 1566.87C520.506 1566.87 546.853 1568.53 571.44 1563.55C571.44 1563.55 573.92 1570.07 574.986 1583.56C575.173 1585.88 571.826 1597.47 569.52 1597.83C561.16 1599.11 546.44 1597.65 520.333 1598.25C520.333 1598.25 479.234 1603.11 457.24 1595.85C435.245 1588.59 488.026 1574.45 488.026 1574.45" fill="#B75742"/>
<path d="M846.907 1042.76C848.707 1061.61 864.533 1068.27 879.293 1080.19C889.2 1088.2 887.493 1109.84 879.92 1123.28C860.747 1157.31 877.08 1161.51 892.533 1186.51C929.76 1246.72 814.413 1260.03 800.733 1264.51C787.04 1268.99 777.76 1274.43 769.667 1273.52C745.253 1270.83 722.933 1236.13 710.547 1204.05C698.147 1171.97 728.227 1170.28 729.773 1151.85C731.307 1133.43 696.107 1129.47 706.547 1094.67C717.827 1057.01 733.773 1025.11 754.933 1013.65C789.96 994.72 832.533 1014.52 842.213 1029.73C845.093 1034.27 846.507 1038.64 846.907 1042.76" fill="#184655"/>
<path d="M849.613 1454.93C852.653 1462.48 869.333 1489.19 869.333 1489.19L635.107 1491.51L631.453 1443.45C695.76 1442.93 759.333 1414.51 818.587 1394.16C820.093 1397.79 848.147 1451.27 849.613 1454.93Z" fill="#FAE0B2"/>
<path d="M683.573 1270.63C683.573 1270.63 696.16 1181.84 716.387 1172.63C736.613 1163.4 846.173 1176.17 862.56 1186.19C878.96 1196.2 851.653 1300.48 847.466 1329.64C847.213 1331.39 846.947 1333.13 846.653 1334.87C839.733 1376.97 843.733 1420.05 858.587 1459.89C798.64 1478.09 783.093 1488.11 718.8 1486.32L694.813 1345.89C694.813 1345.89 675.72 1277.93 683.573 1270.63" fill="#50BFA5"/>
<path d="M803.387 1114.19C803.387 1114.19 808.427 1163.07 812.747 1175.05C817.067 1187.05 801.173 1211.44 775.267 1218.19C749.36 1224.95 768.213 1192.15 767.6 1179.47C766.987 1166.8 764.48 1106.8 764.48 1106.8L803.387 1114.19Z" fill="#F7A491"/>
<path d="M804 1119.8C800.773 1123.47 796.88 1126.79 792.147 1129.57C782.36 1135.35 773.4 1136.61 765.667 1134.84C765.027 1119.72 764.48 1106.8 764.48 1106.8L803.387 1114.19C803.387 1114.19 803.613 1116.33 804 1119.8Z" fill="#F47458"/>
<path d="M794.32 1024.91C794.32 1024.91 809.613 1028.95 818.613 1043.87C827.6 1058.79 832.6 1101.95 800.52 1120.85C768.44 1139.76 745.067 1110.55 745.653 1082.88C746.24 1055.23 753.467 1018.56 794.32 1024.91Z" fill="#F7A491"/>
<path d="M735.92 1071.31C736.267 1078.48 739.947 1084.13 744.107 1083.92C748.28 1083.71 751.387 1077.71 751.027 1070.53C750.68 1063.35 747.013 1057.69 742.84 1057.91C738.667 1058.12 735.573 1064.12 735.92 1071.31" fill="#F7A491"/>
<path d="M817.72 1082.31C815.2 1089.41 817.027 1096.56 821.8 1098.28C826.587 1099.99 832.52 1095.63 835.053 1088.52C837.587 1081.41 835.76 1074.27 830.973 1072.55C826.186 1070.84 820.253 1075.2 817.72 1082.31Z" fill="#F7A491"/>
<path d="M862.56 1186.19C862.56 1186.19 843.88 1195.99 832.426 1223.33C820.973 1250.68 859.986 1390.2 868.306 1399.13C876.626 1408.08 899.64 1409.47 903.56 1387.63C907.493 1365.77 894.253 1193.09 862.56 1186.19Z" fill="#3C8F7C"/>
<path d="M750.84 1167.51L783.04 1360.93L657.667 1381.16L617.867 1200.21C617.867 1200.21 721.013 1158.45 750.84 1167.51Z" fill="#9BC1F9"/>
<path d="M508.853 1173.48C520.827 1168.76 533.893 1167.56 546.533 1170.04C570 1174.63 607.293 1184.13 622.267 1200.21C644.853 1224.49 665.76 1385.11 665.76 1385.11L568.307 1363.25L508.853 1173.48" fill="#9BC1F9"/>
<path d="M844.147 1504.36C827.76 1458.84 642.053 1293.15 592.893 1305.89L619.293 1406.95C619.293 1406.95 674.467 1571.44 728.533 1592.67C782.6 1613.88 833.227 1589.93 833.227 1589.93C833.227 1589.93 860.533 1549.87 844.147 1504.36Z" fill="#F7CC7F"/>
<path d="M777.467 1238.52C775.16 1243.15 789.92 1251.4 794.213 1254.53C798.507 1257.65 816.307 1254.44 816.307 1254.44C816.307 1254.44 780.04 1233.37 777.467 1238.52" fill="#F7A491"/>
<path d="M618.8 1455.08C618.8 1455.08 571.613 1553.15 571.453 1563.36C571.227 1578.07 503.216 1574.03 517.987 1567.75C521.387 1566.29 532.093 1560.88 532.907 1560.16C537.307 1556.39 576.467 1434.6 576.467 1434.6L618.8 1455.08" fill="#F48C7F"/>
<path d="M633.853 1337.76C631.573 1335.24 607.653 1325.73 589.24 1348.68C570.84 1371.61 535.533 1550.17 535.533 1550.17L578.933 1554.43C578.933 1554.43 686.947 1396.32 633.853 1337.76" fill="#F7CC7F"/>
<path d="M493.469 1203.87L549.293 1366.63C551.533 1373.16 557.106 1377.85 563.733 1378.79C616.08 1386.19 643.386 1389.96 643.386 1389.96C643.386 1389.96 653.6 1390.48 664.426 1390.63L784.24 1377.84C794.666 1376.72 801.933 1366.63 799.986 1355.97L770.826 1196.16C769.026 1186.28 759.946 1179.69 750.373 1181.31L635.106 1200.68C624.92 1200.41 615 1200.13 604.8 1199.87L514.12 1179.56C500.416 1176.49 488.777 1190.19 493.469 1203.87" fill="#F47458"/>
<path d="M737.32 1283.03C737.32 1283.03 769.48 1288.99 780.466 1288.67C791.44 1288.33 805.68 1291.8 805.68 1291.8C805.68 1291.8 841.573 1376.2 846.72 1385.61C862.093 1413.72 904.72 1410.4 904.013 1386.96C903.453 1368.35 830.653 1251.55 811.293 1252.13C791.947 1252.72 731.36 1240.08 729.533 1247.79C728.56 1251.92 785.333 1253.85 776.373 1257.37C770.813 1259.56 726.373 1254.56 726.533 1259.8C726.693 1265.03 766.68 1265.52 770.987 1269.57C775.293 1273.64 728.427 1264.61 728.693 1273.49C728.84 1277.96 769.987 1274.73 774.493 1281.52C776.36 1284.33 733.92 1274.24 737.32 1283.03Z" fill="#F7A491"/>
<path d="M520.48 1269.25C517.96 1268.17 515.027 1269.59 514.413 1272.27C513.773 1275 513.64 1278.31 515.667 1280.49C519.707 1284.83 547.827 1288.97 547.987 1284.79C548.093 1281.57 529.227 1273.04 520.48 1269.25Z" fill="#F7A491"/>
<path d="M515.013 1280.19C515.013 1280.19 512.2 1290.72 514.64 1290.81C517.08 1290.91 547.507 1293.92 548.867 1290.29C550.213 1286.68 518.933 1278.05 515.013 1280.19" fill="#F7A491"/>
<path d="M513.707 1291.07C513.707 1291.07 512.84 1295.75 515.36 1298.45C517.88 1301.16 546.213 1299.39 547.253 1294.89C548.293 1290.39 514.707 1287.61 513.707 1291.07Z" fill="#F7A491"/>
<path d="M518.026 1300.96C518.026 1300.96 517.986 1304.55 519.413 1306.08C520.84 1307.61 541.773 1305.48 543.853 1301.01C545.933 1296.56 520.466 1296.33 518.026 1300.96" fill="#F7A491"/>
<path d="M589.013 1548.51C589.013 1548.51 579.027 1584.68 568.987 1608.59C562.413 1624.25 560.72 1639.85 556.373 1647.67C545.373 1667.43 527.387 1668.23 513.107 1656.36C498.831 1644.48 517.987 1594.41 517.987 1594.41L563.067 1530.99L589.013 1548.51" fill="#F7A491"/>
<path d="M556.373 1647.67C560.24 1640.73 562.027 1627.63 566.973 1613.83C560.08 1617.83 548.507 1620.84 542.213 1619.16C519.147 1612.99 517.987 1594.41 517.987 1594.41C517.987 1594.41 493.94 1645.73 508.221 1657.6C522.507 1669.47 545.373 1667.43 556.373 1647.67" fill="#F47458"/>
<path d="M635.12 1200.68L672.027 1391.75L649.813 1390.41L643.387 1389.96L604.827 1199.88L635.12 1200.68" fill="#B75742"/>
<path d="M763.72 1581.49C776.36 1604.75 801.547 1608.36 824.227 1606.45C849.307 1604.35 876.92 1590.63 884.333 1561.84C892.253 1531.08 881.84 1493.03 863.573 1468.89C770.107 1345.4 769.387 1333.23 732.173 1316.81C692 1299.11 542.813 1553.97 542.813 1553.97L583.787 1574.91C583.787 1574.91 645.227 1523.55 684.493 1478.51C689.107 1473.21 702.253 1445.83 702.253 1445.83C702.253 1445.83 755.36 1566.12 763.72 1581.49" fill="#FAE0B2"/>
<path d="M765.093 838.693C725.587 844.667 713.213 896.24 745.68 919.813C751.507 924.04 755.507 930.347 757.147 937.36L762.8 961.507C764.36 968.16 770.76 972.507 777.52 971.48L792.48 969.227C799.24 968.2 804.08 962.16 803.6 955.347C801.853 930.467 799.413 921.427 807.627 910.453C831.68 878.333 804.613 832.72 765.093 838.693" fill="#F7CC7F"/>
<path d="M773.72 952.627C773.707 952.627 773.693 952.627 773.68 952.627C771.693 952.907 769.853 951.52 769.573 949.533L762.213 896.88L749.88 886.32C748.36 885.013 748.187 882.72 749.493 881.2C750.8 879.667 753.093 879.493 754.613 880.8L769.04 893.147L776.773 948.52C777.053 950.493 775.693 952.32 773.72 952.627" fill="#FAE0B2"/>
<path d="M792.04 952.093C792.053 952.093 792.066 952.093 792.08 952.093C794.066 951.773 795.413 949.907 795.08 947.92L786.56 895.453L795.213 881.72C796.28 880.013 795.773 877.773 794.08 876.707C792.373 875.627 790.133 876.133 789.066 877.84L778.933 893.907L787.906 949.093C788.226 951.053 790.08 952.4 792.04 952.093" fill="#FAE0B2"/>
<path d="M756.973 936.773C757.026 936.973 757.093 937.16 757.146 937.36L762.8 961.507C764.36 968.16 770.76 972.507 777.52 971.48L792.48 969.227C799.24 968.2 804.08 962.16 803.6 955.347C802.827 944.28 801.907 936.347 801.853 929.987L756.973 936.773" fill="#96D9C9"/>
<path d="M757.653 454.307L742 431.667L714.48 431.734C711.346 431.734 709.573 428.147 711.466 425.654L728.16 403.774L719.6 377.614C718.626 374.64 721.48 371.84 724.44 372.88L750.413 381.987L772.64 365.76C775.173 363.907 778.72 365.774 778.653 368.907L778.013 396.414L800.306 412.547C802.853 414.374 802.173 418.334 799.173 419.227L772.813 427.12L764.36 453.307C763.4 456.294 759.44 456.88 757.653 454.307Z" fill="#F47458"/>
<path d="M2207.03 495.322L2195.53 478.694L2175.31 478.738C2173.02 478.745 2171.7 476.105 2173.09 474.277L2185.35 458.202L2179.07 438.989C2178.34 436.802 2180.44 434.741 2182.63 435.505L2201.71 442.198L2218.02 430.279C2219.9 428.921 2222.51 430.286 2222.44 432.588L2221.97 452.798L2238.36 464.645C2240.23 465.994 2239.74 468.897 2237.52 469.557L2218.17 475.355L2211.96 494.594C2211.25 496.785 2208.33 497.216 2207.03 495.322" fill="#9BC1F9"/>
<path d="M1884.8 250.914L1859.38 246.642L1844.5 268.303L1816.33 261.494L1807.58 289.446L1775.41 283.155L1764.18 307.903L1732.22 306.919L1732.6 294.82L1756.48 295.571L1768.35 269.454L1799.27 275.495L1808.17 247.059L1839.24 254.585L1853.79 233.425L1877.34 237.397L1883.98 221.493L1895.14 226.165L1884.8 250.914" fill="#F48C7F"/>
<path d="M1163.19 329.707L1144.57 335.427L1132.08 306.493L1103.84 311.48L1090.95 291.36L1080.75 297.893L1098 324.8L1124.76 320.067L1137.77 350.173L1165.77 341.573L1163.19 329.707" fill="#50BFA5"/>
<path d="M633.96 714.44L628.627 690.6L647.387 706.28L633.96 714.44ZM615.12 636.227L587.267 653.173L616.16 782.987C618.653 794.2 631.44 799.653 641.253 793.68C647.44 789.906 650.507 782.613 648.88 775.56L641.813 745.08L671.053 727.293L695.213 747.52C700.733 752.133 708.56 752.72 714.707 748.987L715.227 748.667C725.053 742.693 726.093 728.827 717.267 721.453L615.12 636.227" fill="#F48C7F"/>
<path d="M2284.49 782.174C2287.09 772.806 2295.5 767.903 2304.69 770.456C2314.24 773.104 2318.56 781.54 2316.11 790.957C2313.57 800.15 2305.3 805.284 2295.75 802.63C2286.39 800.031 2281.93 791.366 2284.49 782.174V782.174ZM2295.85 759.058C2297.28 755.381 2296.79 742.214 2315.08 729.555C2322.61 724.405 2328.79 720.027 2330.45 714.013C2333.32 703.646 2322.41 698.669 2311.54 698.72C2305.92 698.745 2301.33 694.237 2301.13 688.617C2300.96 682.906 2305.4 678.123 2311.09 677.845C2317.35 677.54 2324.68 678.144 2332.38 680.284C2355.72 686.761 2362.74 702.61 2358.67 717.281C2354.93 730.714 2344.18 737.246 2335.4 742.806C2320.61 752.192 2320.63 762.654 2319.36 765.584L2295.85 759.058" fill="#F7CC7F"/>
<path d="M1516.45 83.8549C1480.12 83.8549 1461.96 128.554 1487.95 154.175C1492.62 158.775 1495.36 164.978 1495.89 171.519L1497.68 193.994C1498.18 200.197 1503.35 204.959 1509.57 204.959H1523.33C1529.53 204.959 1534.71 200.197 1535.21 193.994C1537.02 171.387 1536.06 162.921 1544.94 154.175C1570.93 128.569 1552.79 83.8549 1516.45 83.8549" fill="#F7CC7F"/>
<path d="M1508.7 187.499C1508.69 187.499 1508.69 187.499 1508.67 187.499C1506.84 187.47 1505.39 185.979 1505.4 184.158L1505.93 135.8L1496.28 124.628C1495.09 123.252 1495.23 121.158 1496.62 119.968C1498.02 118.777 1500.1 118.921 1501.29 120.312L1512.57 133.376L1512.01 184.229C1512 186.036 1510.52 187.499 1508.7 187.499" fill="#FAE0B2"/>
<path d="M1525.25 189.509C1525.27 189.509 1525.28 189.509 1525.3 189.509C1527.12 189.495 1528.57 187.987 1528.56 186.174L1528.04 137.823L1537.68 126.642C1538.87 125.264 1538.72 123.176 1537.33 121.987C1535.95 120.783 1533.87 120.943 1532.66 122.32L1521.39 135.401L1521.95 186.246C1521.96 188.059 1523.44 189.509 1525.25 189.509" fill="#FAE0B2"/>
<path d="M1495.82 170.96C1495.83 171.149 1495.87 171.323 1495.89 171.511L1497.69 193.987C1498.18 200.189 1503.35 204.971 1509.57 204.971H1523.32C1529.54 204.971 1534.71 200.189 1535.2 193.987C1536.01 183.944 1536.28 176.684 1537.09 170.96H1495.82Z" fill="#96D9C9"/>
<path d="M1586.36 22.3226L1554.95 75.5693L1608.2 35.9663L1586.36 22.3226" fill="#FAE0B2"/>
<path d="M1458.67 8.59416L1490.77 63.2776L1485.3 0.467616L1458.67 8.59416Z" fill="#FAE0B2"/>
<path d="M1402.83 86.8864L1453.91 106.977L1401.76 110.095L1402.83 86.8864Z" fill="#FAE0B2"/>
<path d="M1560.41 158.865L1580.89 184.812L1595.92 167.063L1560.41 158.865Z" fill="#FAE0B2"/>
<path d="M1580.9 111.081L1627.32 91.9635L1628.69 112.436L1580.9 111.081Z" fill="#FAE0B2"/>
<path d="M1459.37 162.956L1415.67 183.445L1429.34 199.828L1459.37 162.956Z" fill="#FAE0B2"/>
<path d="M939.533 540.854C941.96 541.92 945 542.787 949.4 544.04C961.053 547.374 972.613 545.92 976.04 533.934C979.32 522.44 970.32 514.947 957.48 511.28L948.693 508.76L939.533 540.854ZM953.96 490.347L962.4 492.76C975.92 496.627 984.773 493.134 987.187 484.68C989.653 476.067 984.36 469.627 972.707 466.294C967.133 464.707 963.827 464.12 961.533 463.84L953.96 490.347ZM940.907 439.494C948.053 440.067 962.027 442.96 974.853 446.627C990.56 451.12 999.76 455.4 1006.64 462.654C1013.36 469.147 1016.89 478.56 1013.95 488.867C1011.05 499 1002.44 506.76 988.24 507.827L988.147 508.16C1000.15 515.427 1006.97 527.974 1002.77 542.667C999.827 552.974 992.773 559.72 984.04 563.44C973.88 567.667 958.973 567.427 936.333 560.947C923.667 557.334 914.453 553.787 908.96 551.294L940.907 439.494" fill="#96D9C9"/>
<path d="M2043.23 488.725C2044.67 495.059 2040.8 501.429 2034.48 502.952C2028.6 504.371 2021.08 505.485 2012.47 505.775C1967.61 507.288 1943.54 480.147 1942.31 443.178C1940.82 398.89 1971.55 373.177 2010.85 371.853C2018.65 371.589 2025.5 372.169 2031.06 373.135C2037.72 374.297 2042.06 380.823 2040.6 387.441L2040.51 387.855C2039.14 394.061 2033.14 398.154 2026.89 397.038C2022.77 396.304 2018.14 395.897 2013 396.07C1989.71 396.857 1972.08 411.522 1973.05 440.405C1973.93 466.399 1989.9 482.248 2016.08 481.364C2020.43 481.218 2025 480.596 2029.21 479.707C2035.55 478.36 2041.78 482.408 2043.23 488.725" fill="#F7CC7F"/>
<path d="M585.027 1064.65L554.813 992.48C552.32 986.507 555.32 979.667 561.413 977.467L568.773 974.813C574.853 972.627 581.533 975.973 583.427 982.147L606.333 1056.97L585.027 1064.65ZM588.2 1092.79C585.067 1083.48 590.28 1073.04 599.6 1069.97C609.293 1066.77 618.133 1071.52 621.813 1081.17C625.32 1090.91 621.4 1100.55 611.307 1104.19C601.053 1107.88 591.56 1102.8 588.2 1092.79" fill="#466EB6"/>
<path d="M1961.13 999.156C1961.13 999.156 2038.99 1033.09 2045.86 1034.6C2050.16 1035.54 2099.66 984.25 2126.64 964.211C2127.88 963.276 2132.68 956.463 2134.01 955.784C2150.08 947.716 2122.94 994.169 2122.94 994.169C2122.94 994.169 2065.53 1067.18 2052.54 1073.44C2036.24 1081.29 1955.6 1041.44 1956.09 1039.13L1961.13 999.156Z" fill="#F48C7F"/>
<path d="M1948.79 926.276C1952.13 903.329 1968.06 854.489 1953.37 834.955C1932.7 807.49 1889.04 808.676 1868.43 835.063C1858.96 847.169 1853.86 861.996 1848.87 876.516C1845.65 885.89 1842.39 895.316 1837.87 904.143C1833.8 912.035 1829.18 921.902 1821.46 926.715C1787.19 948.062 1748.78 961.823 1746.31 1009.92C1743.38 1066.96 1805.87 1138.33 1882.62 1103.78C1911.98 1090.56 1950.47 1047.8 1963.02 1018.21C1968.69 1004.86 1965.96 1006.26 1962.85 985.943C1960.05 967.743 1946.08 944.756 1948.79 926.276" fill="#184655"/>
<path d="M1907.02 960.401L2011.27 1017.76L1986.68 1055.08C1986.68 1055.08 1908.2 1025.17 1892.33 1020.89C1876.46 1016.6 1888.96 958.84 1907.02 960.401Z" fill="#355389"/>
<path d="M1905.24 910.642C1905.24 910.642 1902.52 950.336 1900.5 961.468C1898.41 972.961 1897.14 1020.84 1921.05 1026.69C1944.96 1032.54 1935.98 967.708 1936.39 956.081C1936.77 944.454 1939.11 906.694 1939.11 906.694L1905.24 910.642Z" fill="#F7A491"/>
<path d="M1904.89 915.404C1906.69 918.072 1908.84 920.644 1911.4 923.057C1920.22 931.365 1929.27 934.071 1937.55 932.991C1938.3 919.83 1939.11 906.698 1939.11 906.698L1905.23 910.644C1905.23 910.644 1905.09 912.445 1904.89 915.404" fill="#F47458"/>
<path d="M1929.95 834.655C1929.95 834.655 1915.42 835.134 1904.28 846.614C1893.16 858.094 1879.85 895.628 1904.72 919.109C1929.62 942.588 1954.24 922.416 1959.37 897.588C1964.51 872.761 1967.86 837.376 1929.95 834.655Z" fill="#F7A491"/>
<path d="M1943.59 835.825C1943.59 835.825 1928.42 874.973 1892.58 871.666C1876.36 870.173 1872.67 892.333 1872.67 892.333C1872.67 892.333 1885.96 839.707 1902.64 831.88C1919.3 824.067 1943.59 835.825 1943.59 835.825Z" fill="#184655"/>
<path d="M1897.19 881.133C1898.01 888.001 1894.92 894.013 1890.28 894.574C1885.63 895.121 1881.21 890 1880.41 883.134C1879.59 876.267 1882.68 870.254 1887.32 869.708C1891.97 869.147 1896.39 874.267 1897.19 881.133" fill="#F7A491"/>
<path d="M2163.53 894L2075.29 1074.32C2073.19 1078.61 2073.85 1083.61 2076.73 1085.31L2141.19 1123.05L2221.77 963.266C2221.77 963.266 2186.67 910.733 2173.49 891.039C2171.06 887.4 2166.04 888.893 2163.53 894" fill="#B75742"/>
<path d="M2086.63 1068.38L2163.4 911.489C2165.92 906.382 2170.93 904.877 2173.37 908.528C2184.07 924.529 2200.24 948.715 2211.86 966.102L2139.54 1109.53L2088.06 1079.38C2085.17 1077.69 2084.52 1072.69 2086.63 1068.38Z" fill="#FAE0B2"/>
<path d="M2128.55 952.349C2129.46 950.763 2133.64 947.336 2135.41 946.869C2139.12 945.883 2143.62 946.029 2144.37 948.416C2145.45 951.91 2134.44 955.777 2134.44 955.777L2128.46 964.457C2128.46 964.457 2125.66 957.362 2128.55 952.349" fill="#F48C7F"/>
<path d="M1902.22 950.757C1902.22 950.757 1929.39 973.197 1937.18 980.996C1944.93 988.73 1958.47 998.184 1958.47 998.184L1936.5 967.796L1922.6 954.809L1902.22 950.757" fill="#F7A491"/>
<path d="M2239.46 1310.44C2235.26 1306.93 2231.41 1296.92 2229.85 1292.53C2220.72 1245.27 2177.55 1117.44 2130.51 1117.44C2089.57 1117.44 1963.02 1216.68 1903.84 1274.03C1886.75 1290.59 1887.91 1276.53 1898.38 1280.4C1904.62 1282.71 1946.88 1352.99 1953.64 1353.29C1974.3 1354.24 1993.42 1340.4 2010.65 1330.77C2036.95 1316.09 2055.23 1299.36 2070.5 1276.55C2109.2 1218.77 2123.71 1184.77 2135.37 1162.65C2135.37 1162.65 2146.37 1208.13 2151.76 1219.11C2163.95 1243.87 2200.34 1304.88 2214.58 1328.65L2270.41 1327.13C2270.41 1327.13 2244.93 1315 2239.46 1310.44Z" fill="#F48C7F"/>
<path d="M2134.17 1143.84C2134.17 1143.84 1946.64 1231.24 1934.79 1261.28C1922.96 1291.32 1932.06 1335.93 1959.37 1345.04C1986.68 1354.14 2156.03 1209.38 2156.03 1209.38C2156.03 1209.38 2177.87 1249.45 2208.83 1276.76C2225.34 1291.32 2253.23 1303.2 2269.13 1313.85C2283.07 1323.2 2286.22 1332.29 2286.22 1332.29L2325.36 1334.1C2325.36 1334.1 2318.76 1331.85 2306.92 1315.91C2266.95 1262.04 2174.22 1136.81 2134.17 1143.84" fill="#F7A491"/>
<path d="M2061.78 1132.92C2061.78 1132.92 2122.03 1197.86 2133.86 1283.44C2133.86 1283.44 2039.47 1324.1 1993.05 1348.68C1946.62 1373.25 1894.72 1347.78 1878.35 1320.45C1861.96 1293.15 1878.35 1216.21 1878.35 1216.21L1974.85 1201.2L2061.78 1132.92" fill="#13375B"/>
<path d="M2204.71 1312.41C2199.93 1310.59 2198.23 1334.87 2197.47 1340.28C2196.56 1346.37 2199.46 1350.51 2200.21 1351.01C2202.19 1352.39 2279.54 1353.92 2294.32 1349.95C2295.32 1349.68 2297.42 1348.43 2297.78 1348.11C2308.64 1338.63 2258.39 1313.49 2248.28 1315.6C2239.26 1317.48 2226.3 1320.64 2204.71 1312.41" fill="#355389"/>
<path d="M1900.64 961.312C1900.64 961.312 1885.94 961.178 1870.21 995.07C1850.86 1036.72 1878.46 1195.68 1876.45 1218.36C1876.45 1218.36 1883.26 1226.2 1922.97 1231.94C1958.15 1237.02 1978.03 1211.9 1978.03 1211.9C1978.03 1211.9 1969.08 1150.52 1982.63 1092.79C1989.98 1061.5 1993.86 1031.16 1964.84 1003.04C1935.78 974.911 1900.64 961.312 1900.64 961.312Z" fill="#466EB6"/>
<path d="M2269.65 1313.92C2264.84 1312.09 2260.7 1335.48 2261.08 1341.2C2261.45 1347.34 2263 1351.81 2263.75 1352.32C2265.73 1353.69 2343.15 1354.83 2357.94 1350.85C2358.94 1350.59 2361.04 1349.33 2361.41 1349.01C2372.26 1339.53 2316.37 1315.83 2306.25 1317.93C2297.25 1319.8 2291.23 1322.15 2269.65 1313.92Z" fill="#466EB6"/>
<path d="M2217.89 886.532L2071.62 1099.5C2068.24 1104.41 2069.04 1110.4 2073.28 1111.97L2172.21 1148.84L2289.19 981.131L2230.82 884.411C2228.19 880.052 2221.6 881.131 2217.89 886.532" fill="#F47458"/>
<path d="M2183.09 1048.02C2181.22 1044.39 2166.03 1052.44 2166.03 1052.44C2166.03 1052.44 2152.51 1054.79 2151.55 1054.28C2150.46 1053.72 2160.64 1052.87 2160.64 1052.87C2160.64 1052.87 2177.24 1047.19 2177.05 1045.34C2176.29 1037.67 2165.9 1047.2 2157.74 1047.55C2151.53 1047.82 2144.75 1047.55 2138.77 1046.7C2136.37 1045.35 2142.46 1042.34 2142.46 1042.34C2142.46 1042.34 2150.46 1038.75 2149.17 1036.64C2146.07 1031.55 2127.4 1041.24 2123.46 1044.84C2120.82 1047.26 2117.54 1051.94 2112.96 1054.54C2092.99 1065.82 2069.06 1085.19 2040.85 1098.78C2031.5 1090.92 1941.3 1009.98 1939.03 1008L1889.76 1046.8C1889.83 1046.86 2031.08 1154.44 2038.95 1154.19C2048.81 1153.86 2107.64 1091.78 2123.56 1076.98C2125.96 1074.74 2141.08 1073.06 2145.23 1073.64C2154.49 1074.92 2171.81 1067.67 2171.81 1067.67C2177.14 1062.03 2152.12 1067.74 2154.5 1066.26C2155.56 1065.62 2161.65 1064.99 2167.74 1064.12C2173.95 1063.23 2179.56 1059.68 2180.3 1057.99C2181.8 1054.67 2166.38 1059.43 2166.38 1059.43L2153.54 1060.23L2165.82 1057.72C2165.82 1057.72 2184.94 1051.55 2183.09 1048.02" fill="#F7A491"/>
<path d="M1925.18 983.386C1909.26 967.08 1878.62 969.453 1869.69 992.719C1867.21 999.187 1867.31 1017.76 1870.16 1024.59C1881.48 1051.89 1947.53 1096.51 1947.53 1096.51L1983.95 1046.89L1925.18 983.386" fill="#86B1F2"/>
<path d="M1270.64 508.84C1270.64 506.747 1273.21 493.253 1273.21 493.253C1273.21 493.253 1267.21 474.12 1266.6 474.08C1254.24 473.187 1244.92 481.587 1247 492.88L1247.12 493.253C1253.52 513.68 1270.73 528.84 1291.8 532.613C1296.6 533.48 1301.68 534.387 1306.89 535.293C1304.44 527.093 1302.93 518.72 1303.01 510.107C1284.96 509.973 1270.64 509.613 1270.64 508.84" fill="#F7A491"/>
<path d="M1479.61 424.403C1479.27 423.385 1370.97 493.818 1370.97 493.818C1370.97 493.818 1324.74 494.27 1290.6 493.988C1290.51 504.296 1292.18 514.335 1294.89 524.163C1328.63 530.54 1367.08 537.285 1375.82 536.606C1392.12 535.362 1473.85 494.581 1473.85 494.581C1473.85 494.581 1479.86 425.167 1479.61 424.403Z" fill="#355389"/>
<path d="M1480.81 687.443C1480.58 685.674 1457.7 607.21 1455.32 536.929C1453.45 482.43 1470.33 433.567 1478.97 424.65C1482.18 421.312 1511.91 414.172 1511.91 414.172L1501.09 432.151C1490.09 452.919 1487.1 471.316 1482.33 494.743C1468.47 562.712 1530.7 698.705 1527.53 699.582C1524.01 700.562 1481.69 694.404 1480.81 687.443" fill="#466EB6"/>
<path d="M1243.47 413.147L1224.47 425.547L1281.29 521.2L1299.16 443.534L1243.47 413.147Z" fill="#9BC1F9"/>
<path d="M1255.23 398.093L1279.11 477.48L1298.24 443.187L1255.23 398.093Z" fill="#9BC1F9"/>
<path d="M1412.99 388.927L1431.35 455.593L1295.99 443.301L1412.99 388.927" fill="#9BC1F9"/>
<path d="M1335.76 670.96C1335.76 670.96 1278.23 741.24 1278.07 751.454C1277.84 766.16 1209.84 762.134 1224.6 755.84C1228 754.387 1238.71 748.974 1239.52 748.267C1243.92 744.48 1289.25 655.747 1289.25 655.747L1335.76 670.96" fill="#F7A491"/>
<path d="M1194.64 762.547L1238.39 748.947C1238.39 748.947 1253.48 756.627 1278.07 751.64C1278.07 751.64 1284.48 761.947 1285.55 775.427C1285.73 777.747 1286.88 784.653 1284.57 785C1276.21 786.293 1253.07 785.747 1226.96 786.347C1226.96 786.347 1191.77 786.76 1169.79 779.494C1147.79 772.24 1194.64 762.547 1194.64 762.547" fill="#07345A"/>
<path d="M1614.34 687.738C1614.34 687.738 1562.57 675.912 1514.2 641.31C1458.22 601.266 1395.25 559.624 1370.36 563.017C1350.32 565.747 1233.81 725.975 1233.81 725.975L1290.25 750.555L1392.2 645.862C1392.2 645.862 1496.36 753.239 1530.58 760.57C1608.53 777.263 1633.43 719.793 1614.34 687.738" fill="#B75742"/>
<path d="M1221.8 425.574L1300.3 591.863C1300.66 592.625 1301.33 593.174 1302.14 593.361L1354.57 607.936L1287.57 443.198L1225.16 421.816C1222.86 421.041 1220.77 423.381 1221.8 425.574" fill="#F7CC7F"/>
<path d="M1488.93 268.459C1488.93 268.459 1503.42 248.688 1519.62 268.459C1519.62 268.459 1529.26 261.318 1537.84 270.761C1537.84 270.761 1555.87 262.749 1563.97 290.192C1563.97 290.192 1573.39 287.152 1576.12 298.454C1578.85 309.756 1573.99 318.136 1573.99 318.136C1573.99 318.136 1579.92 321.515 1578.8 332.359C1577.84 341.595 1570.6 343.897 1570.6 343.897C1570.6 343.897 1570.51 359.256 1564.53 364.626C1558.56 370.012 1549.38 368.964 1549.38 368.964C1549.38 368.964 1548.04 377.448 1540.31 377.684C1532.58 377.92 1522.19 371.841 1514.06 376.208C1505.92 380.561 1483.28 379.926 1483.28 379.926C1483.28 379.926 1456.95 371.989 1461.18 345.564C1461.18 345.564 1446.58 335.398 1456.24 319.759C1456.24 319.759 1445.06 298.616 1459.96 283.42C1474.86 268.208 1488.93 268.459 1488.93 268.459" fill="#07345A"/>
<path d="M1409.03 894.405C1409.03 894.405 1412.22 980.885 1414.18 995.538C1416.16 1010.11 1377.5 1054.04 1382.44 1038.77C1383.58 1035.25 1386.49 1023.62 1386.51 1022.54C1386.52 1016.74 1372.16 918.072 1372.16 918.072L1409.03 894.405" fill="#F7A491"/>
<path d="M1367.87 1065.77L1386.29 1023.84C1386.29 1023.84 1401.99 1017.48 1414.35 995.65C1414.35 995.65 1426.33 997.571 1437.21 1005.61C1439.09 1007 1445.05 1010.65 1443.81 1012.62C1439.28 1019.78 1423.68 1036.89 1407.03 1057C1407.03 1057 1384.26 1083.81 1364.36 1095.65C1344.44 1107.49 1367.87 1065.77 1367.87 1065.77Z" fill="#07345A"/>
<path d="M1371.27 984.518C1375.32 980.412 1330.34 759.165 1352.15 737.81C1373.96 716.455 1519.66 685.008 1519.66 685.008L1538.77 617.635C1538.77 617.635 1599.69 635.5 1624.35 672.263C1637.84 692.368 1624.06 738.211 1621.62 743.273C1600.81 786.606 1549.41 788.792 1512 788.408C1477.59 788.055 1416.49 787.579 1416.49 787.579L1416.34 983.159C1416.34 983.159 1401.3 986.798 1389.47 986.345C1373.28 985.718 1371.27 984.518 1371.27 984.518" fill="#F47458"/>
<path d="M1506.33 418.908L1545.79 404.729C1545.79 404.729 1546.97 404.789 1547.33 404.744C1551.57 404.202 1598.13 556.546 1613.33 614.181C1628.52 671.812 1608.61 660.882 1608.61 660.882C1608.61 660.882 1573.82 682.572 1533.3 684.1C1491.2 685.688 1499.63 634.94 1499.63 634.94C1499.63 634.94 1477.45 528.985 1480.06 492.92C1482.65 456.855 1506.33 418.908 1506.33 418.908" fill="white"/>
<path d="M1506.95 387.926L1506.79 407.343L1506.78 410.79C1506.78 410.79 1504.09 444.039 1513.62 449.173C1523.14 454.307 1545.76 404.74 1545.76 404.74L1535.52 348.321L1506.95 387.926Z" fill="#F7A491"/>
<path d="M1538.85 366.656C1534.09 387.003 1518.41 401.128 1506.83 407.306L1506.97 387.916L1535.53 348.325L1538.85 366.656" fill="#F47458"/>
<path d="M1507.76 291.042C1489.26 287.186 1471.86 301.359 1471.48 319.972C1471.3 328.063 1471.49 338.177 1472.69 349.12C1475.54 375.445 1492.36 399.267 1504.29 397.754C1516.23 396.255 1547.02 375.067 1543.48 337.638C1541.3 314.529 1527.17 295.087 1507.76 291.042" fill="#F7A491"/>
<path d="M1535.07 341.702C1535.81 347.494 1540.25 351.71 1544.97 351.112C1549.71 350.499 1552.95 345.32 1552.22 339.529C1551.48 333.737 1547.06 329.535 1542.32 330.133C1537.58 330.732 1534.34 335.911 1535.07 341.702Z" fill="#F7A491"/>
<path d="M1454.45 284.513C1443.37 295.839 1440.95 311.211 1449.01 318.847C1457.09 326.498 1472.6 323.52 1483.69 312.194C1494.77 300.882 1497.21 285.51 1489.13 277.859C1481.06 270.223 1465.52 273.201 1454.45 284.513Z" fill="#07345A"/>
<path d="M1487.65 288.437C1488.2 292.679 1493.76 295.46 1500.07 294.657C1506.39 293.855 1511.07 289.77 1510.54 285.528C1510 281.3 1504.45 278.505 1498.13 279.308C1491.81 280.11 1487.12 284.195 1487.65 288.437Z" fill="#07345A"/>
<path d="M1457.78 325.374C1458.47 330.827 1463.4 334.699 1468.8 334.006C1474.18 333.328 1477.99 328.355 1477.3 322.901C1476.61 317.447 1471.68 313.59 1466.28 314.268C1460.9 314.947 1457.08 319.92 1457.78 325.374Z" fill="#07345A"/>
<path d="M1545.76 404.732C1545.76 404.732 1584.38 398.464 1597.36 403.984C1605.61 407.507 1616.12 477.531 1616.12 477.531C1616.12 477.531 1616.54 548.363 1621.38 568.324C1637.74 636.034 1660.6 695.324 1658.04 698.668C1641.23 712.476 1570.98 725.276 1565.63 718.696C1506.66 646.047 1545.76 404.732 1545.76 404.732Z" fill="#466EB6"/>
<path d="M1610.24 476.525C1610.24 476.525 1571.56 596.076 1554.63 608.611C1537.72 621.145 1461.62 503.836 1461.62 503.836C1461.62 503.836 1427.94 484.727 1425.54 484.518C1415.99 483.726 1445.45 478.811 1445.45 478.811L1449.11 448.303C1449.11 448.303 1450.55 448.527 1459.35 458.432C1471.24 471.834 1481.58 492.601 1486.43 496.111L1537.41 534.792L1563.36 451.948L1610.24 476.525" fill="#F7A491"/>
<path d="M1287.59 443.19L1303.59 441.626L1372.22 612.402L1354.57 607.927L1287.59 443.19" fill="#FAE0B2"/>
<path d="M1440.2 401.579L1481.49 602.628C1482.17 605.955 1479.69 609.083 1476.31 609.182L1372.22 612.395L1303.6 441.636L1433.08 397.503C1436.19 396.441 1439.53 398.352 1440.2 401.579Z" fill="#F7CC7F"/>
<path d="M1482.1 488.834L1468.9 517.735C1468.9 517.735 1533.77 624.474 1553.8 618.556C1573.82 612.638 1611.6 497.021 1617.52 465.161C1623.43 433.286 1611.15 406.894 1594.76 402.793C1578.37 398.693 1565.62 426.467 1560.62 438.303C1555.61 450.14 1537.41 534.799 1537.41 534.799L1482.1 488.834" fill="#86B1F2"/>
<path d="M1251.49 490.413C1251.49 490.413 1249.07 486.147 1248.28 483.533C1247.51 480.933 1263.47 471.867 1269.79 476C1276.11 480.133 1259.23 486.413 1251.49 490.413" fill="#F7A491"/>
<path d="M1252.16 500.854C1252.16 500.854 1248.15 496.653 1247.37 494.04C1246.59 491.44 1267.84 480.747 1274.16 484.88C1280.48 489.013 1259.89 496.867 1252.16 500.854" fill="#F7A491"/>
<path d="M1259.44 508.147C1259.44 508.147 1255.43 503.933 1254.65 501.333C1253.87 498.72 1269.84 489.667 1276.16 493.787C1282.48 497.92 1267.17 504.147 1259.44 508.147Z" fill="#F7A491"/>
<path d="M1452.51 460.148H1449.2C1447.63 460.148 1446.06 459.979 1444.52 459.643C1438.4 458.31 1421.65 454.984 1420.34 458.324C1418.76 462.421 1444.46 467.205 1444.46 467.205C1444.46 467.205 1416.26 463.557 1416.26 468.342C1416.26 473.126 1444.94 475.623 1444.94 475.623C1444.94 475.623 1419.89 474.711 1419.44 477.447C1418.98 480.169 1450.16 487.914 1450.16 487.914C1450.16 487.914 1424.9 482.456 1422.4 485.641C1419.89 488.826 1462 504.19 1462 504.19L1452.51 460.148Z" fill="#F7A491"/>
<path d="M1259.44 508.147C1259.44 508.147 1273.24 500.347 1276.89 502.787C1280.53 505.214 1265.05 516.893 1265.05 516.893L1266.91 521.16C1266.91 521.16 1257.01 513.507 1259.44 508.147" fill="#F7A491"/>
</svg>
