<?xml version="1.0" encoding="utf-8"?>
<svg xmlns="http://www.w3.org/2000/svg" style="margin: auto; background: none; display: block; shape-rendering: auto;" width="280" height="250" preserveAspectRatio="xMidYMid">
<style type="text/css">
  text {
    text-anchor: middle; font-size: 48px; opacity: 0;
  }
</style>
<g style="transform-origin: 140px 125px; transform: scale(0.6);">
<g transform="translate(140,125)">
  <g transform="translate(0,0)"><g class="path" style="transform: scale(0.91); transform-origin: -148.16px 3.49008px; animation: 1s linear -0.594s infinite normal forwards running breath-336e18e7-94e4-4ae1-bee4-3d6a98dbbaa0;"><path d="M102.24 6.56L103.28 7.92L103.28 7.92Q100.24 10.96 95.40 10.96L95.40 10.96L95.40 10.96Q90.56 10.96 87.68 7.80L87.68 7.80L87.68 7.80Q84.80 4.64 84.80-0.52L84.80-0.52L84.80-0.52Q84.80-5.68 86.64-12.40L86.64-12.40L90.24-24.24L90.24-24.24Q83.52-15.76 77.92-8L77.92-8L77.92-8Q66.88 7.28 62.96 12.48L62.96 12.48L61.52 12.08L58.40-26.64L52-14.96L52-14.96Q42.88 2.24 36.76 7.72L36.76 7.72L36.76 7.72Q30.64 13.20 20.48 13.20L20.48 13.20L20.48 13.20Q11.84 13.20 6.16 7.04L6.16 7.04L6.16 7.04Q1.68 2 1.68-5.04L1.68-5.04L1.68-5.04Q1.68-6.32 1.84-7.68L1.84-7.68L3.44-7.52L3.44-7.52Q3.28-6.24 3.28-5.04L3.28-5.04L3.28-5.04Q3.28 1.44 7.36 5.92L7.36 5.92L7.36 5.92Q12.56 11.60 20.48 11.60L20.48 11.60L20.48 11.60Q30 11.60 35.84 6.28L35.84 6.28L35.84 6.28Q41.68 0.96 50.56-15.68L50.56-15.68L64.96-41.84L64.96-41.84Q56.48-42 48.52-44.52L48.52-44.52L48.52-44.52Q40.56-47.04 34.28-47.04L34.28-47.04L34.28-47.04Q28-47.04 23.76-42.64L23.76-42.64L23.76-42.64Q19.52-38.24 19.52-31.28L19.52-31.28L17.92-31.28L17.92-31.28Q17.92-38.96 22.60-43.80L22.60-43.80L22.60-43.80Q27.28-48.64 34.72-48.64L34.72-48.64L34.72-48.64Q40.72-48.64 49-46.04L49-46.04L49-46.04Q57.28-43.44 66.88-43.44L66.88-43.44L70.24-0.24L71.84-2.48L71.84-2.48Q88.72-25.68 97.92-35.64L97.92-35.64L97.92-35.64Q107.12-45.60 112.80-45.60L112.80-45.60L112.80-44L112.80-44Q110.32-44 106.48-41.28L106.48-41.28L106.48-41.28Q105.92-39.52 102.72-29.08L102.72-29.08L102.72-29.08Q99.52-18.64 97-10.84L97-10.84L97-10.84Q94.48-3.04 94.48 1.92L94.48 1.92L94.48 1.92Q94.48 6.88 96.24 9.28L96.24 9.28L96.24 9.28Q97.92 9.28 99.40 8.60L99.40 8.60L99.40 8.60Q100.88 7.92 101.60 7.20L101.60 7.20L102.24 6.56" fill="#51cacc" stroke="none" stroke-width="none" transform="translate(-205.39999389648438,21.21007984924316)" style="fill: rgb(81, 202, 204);"></path></g><g class="path" style="transform: scale(0.91); transform-origin: -76.2px 13.0101px; animation: 1s linear -0.528s infinite normal forwards running breath-336e18e7-94e4-4ae1-bee4-3d6a98dbbaa0;"><path d="M116.56-29.52L116.56-29.52L116.56-29.52Q114.64-29.52 112.56-27.28L112.56-27.28L111.36-28.24L111.36-28.24Q111.92-29.36 113.84-30.24L113.84-30.24L113.84-30.24Q115.76-31.12 118.08-31.12L118.08-31.12L118.08-31.12Q125.36-31.12 125.36-24.56L125.36-24.56L125.36-24.56Q125.36-21.76 123.84-15.40L123.84-15.40L123.84-15.40Q122.32-9.04 122.32-6.80L122.32-6.80L122.32-6.80Q122.32-2.96 125.52-2.96L125.52-2.96L125.52-2.96Q128.16-2.96 130.68-6.56L130.68-6.56L130.68-6.56Q133.20-10.16 134.80-16.24L134.80-16.24L137.44-30.40L137.44-30.40Q143.36-30.40 146.08-30.88L146.08-30.88L147.12-31.12L142.08-2.80L142.08-2.80Q140.64 5.44 135.40 10.08L135.40 10.08L135.40 10.08Q130.16 14.72 121.84 14.72L121.84 14.72L121.84 14.72Q116.80 14.72 114.04 13L114.04 13L114.04 13Q111.28 11.28 111.28 8.52L111.28 8.52L111.28 8.52Q111.28 5.76 112.96 4.12L112.96 4.12L112.96 4.12Q114.64 2.48 117.72 2.48L117.72 2.48L117.72 2.48Q120.80 2.48 123.44 3.48L123.44 3.48L123.44 3.48Q126.08 4.48 127.28 4.64L127.28 4.64L127.12 6.08L127.12 6.08Q125.76 5.92 123.20 4.96L123.20 4.96L123.20 4.96Q120.64 4 118.12 4L118.12 4L118.12 4Q115.60 4 114.28 5.12L114.28 5.12L114.28 5.12Q112.96 6.24 112.96 8.36L112.96 8.36L112.96 8.36Q112.96 10.48 115.28 11.80L115.28 11.80L115.28 11.80Q117.60 13.12 121.04 13.12L121.04 13.12L121.04 13.12Q129.36 13.12 131.28 3.12L131.28 3.12L133.28-7.92L133.28-7.92Q129.92-0.56 123.12-0.56L123.12-0.56L123.12-0.56Q118.48-0.56 115.96-3.20L115.96-3.20L115.96-3.20Q113.44-5.84 113.44-10.64L113.44-10.64L113.44-10.64Q113.44-13.12 114.92-19.56L114.92-19.56L114.92-19.56Q116.40-26 116.56-29.52" fill="#51cacc" stroke="none" stroke-width="none" transform="translate(-205.39999389648438,21.21007984924316)" style="fill: rgb(157, 248, 113);"></path></g><g class="path" style="transform: scale(0.91); transform-origin: -16.76px 2.69008px; animation: 1s linear -0.462s infinite normal forwards running breath-336e18e7-94e4-4ae1-bee4-3d6a98dbbaa0;"><path d="M176.08 5.76L176.08 5.76Q173.52 3.36 171.20 2.12L171.20 2.12L171.20 2.12Q168.88 0.88 165.56 0.88L165.56 0.88L165.56 0.88Q162.24 0.88 160.28 2.12L160.28 2.12L160.28 2.12Q158.32 3.36 158.32 5.64L158.32 5.64L158.32 5.64Q158.32 7.92 160.92 9.32L160.92 9.32L160.92 9.32Q163.52 10.72 167.04 10.72L167.04 10.72L167.04 10.72Q170.56 10.72 173.28 10.08L173.28 10.08L173.28 10.08Q174.88 8.64 176.08 5.76L176.08 5.76zM189.60 13.88L189.60 13.88L189.60 13.88Q190.96 14.32 192.48 14.48L192.48 14.48L192.48 14.48Q194.00 14.64 196.52 14.64L196.52 14.64L196.52 14.64Q199.04 14.64 201.68 13.28L201.68 13.28L201.68 13.28Q204.32 11.92 205.88 10.12L205.88 10.12L205.88 10.12Q207.44 8.32 208.64 6.08L208.64 6.08L208.64 6.08Q210.16 3.44 210.88 0.80L210.88 0.80L212.80 1.44L212.80 1.44Q210.72 8.24 206.20 12.24L206.20 12.24L206.20 12.24Q201.68 16.24 195.68 16.24L195.68 16.24L195.68 16.24Q190.96 16.24 189.16 15.56L189.16 15.56L189.16 15.56Q187.36 14.88 186.56 14.68L186.56 14.68L186.56 14.68Q185.76 14.48 184.44 13.48L184.44 13.48L184.44 13.48Q183.12 12.48 182.88 12.32L182.88 12.32L182.88 12.32Q182.24 11.84 179.60 9.20L179.60 9.20L179.60 9.20Q174.48 12.24 168.56 12.24L168.56 12.24L168.56 12.24Q162.64 12.24 159.52 10.36L159.52 10.36L159.52 10.36Q156.40 8.48 156.40 5.64L156.40 5.64L156.40 5.64Q156.40 2.80 158.68 1.08L158.68 1.08L158.68 1.08Q160.96-0.64 165.52-0.64L165.52-0.64L165.52-0.64Q171.76-0.64 176.72 4L176.72 4L176.72 4Q177.68 1.04 178.32-2.56L178.32-2.56L183.68-33.52L183.68-33.52Q185.60-45.52 192.00-49.68L192.00-49.68L192.00-49.68Q197.60-53.28 204.72-53.28L204.72-53.28L204.72-53.28Q211.84-53.28 216.36-49.20L216.36-49.20L216.36-49.20Q220.88-45.12 220.88-36.32L220.88-36.32L218.96-36.32L218.96-36.32Q218.96-43.44 215.56-47.16L215.56-47.16L215.56-47.16Q212.16-50.88 206.96-50.88L206.96-50.88L206.96-50.88Q197.44-50.88 195.68-39.04L195.68-39.04L195.68-39.04Q195.68-37.76 193.64-25.88L193.64-25.88L193.64-25.88Q191.60-14 190.00-6.24L190.00-6.24L190.00-6.24Q188.32 3.12 181.04 8.24L181.04 8.24L181.04 8.24Q185.36 12.56 187.44 13.20L187.44 13.20L187.44 13.20Q188.24 13.44 189.60 13.88" fill="#51cacc" stroke="none" stroke-width="none" transform="translate(-205.39999389648438,21.21007984924316)" style="fill: rgb(224, 255, 119);"></path></g><g class="path" style="transform: scale(0.91); transform-origin: 22px 6.01008px; animation: 1s linear -0.396s infinite normal forwards running breath-336e18e7-94e4-4ae1-bee4-3d6a98dbbaa0;"><path d="M234.08-2.16L234.08-2.16Q231.68 0.72 228.08 0.72L228.08 0.72L228.08 0.72Q224.48 0.72 222.44-1.12L222.44-1.12L222.44-1.12Q220.40-2.96 220.40-5.92L220.40-5.92L220.40-5.92Q220.40-6.96 221.68-14.64L221.68-14.64L224.32-28.96L220.96-28.96L221.12-30.40L224.56-30.40L224.56-30.40Q230.48-30.40 233.28-30.88L233.28-30.88L234.40-31.12L228.88-0.88L228.88-0.88Q231.28-1.12 232.88-3.12L232.88-3.12L234.08-2.16" fill="#51cacc" stroke="none" stroke-width="none" transform="translate(-205.39999389648438,21.21007984924316)" style="fill: rgb(222, 157, 214);"></path></g><g class="path" style="transform: scale(0.91); transform-origin: 25.76px -21.7099px; animation: 1s linear -0.33s infinite normal forwards running breath-336e18e7-94e4-4ae1-bee4-3d6a98dbbaa0;"><path d="M227.04-38.80L227.04-38.80L227.04-38.80Q225.36-40.48 225.36-42.88L225.36-42.88L225.36-42.88Q225.36-45.28 227.04-47L227.04-47L227.04-47Q228.72-48.72 231.12-48.72L231.12-48.72L231.12-48.72Q233.52-48.72 235.24-47L235.24-47L235.24-47Q236.96-45.28 236.96-42.88L236.96-42.88L236.96-42.88Q236.96-40.48 235.24-38.80L235.24-38.80L235.24-38.80Q233.52-37.12 231.12-37.12L231.12-37.12L231.12-37.12Q228.72-37.12 227.04-38.80" fill="#51cacc" stroke="none" stroke-width="none" transform="translate(-205.39999389648438,21.21007984924316)" style="fill: rgb(255, 112, 142);"></path></g><g class="path" style="transform: scale(0.91); transform-origin: 49.2px -3.62992px; animation: 1s linear -0.264s infinite normal forwards running breath-336e18e7-94e4-4ae1-bee4-3d6a98dbbaa0;"><path d="M253.20 0.72L253.20 0.72L253.20 0.72Q248.16 0.72 245.84-2.64L245.84-2.64L239.12 2.16L237.60 2.16L246.56-50.24L246.56-50.24Q244.16-50 242.56-48L242.56-48L241.36-48.96L241.36-48.96Q243.76-51.84 247.40-51.84L247.40-51.84L247.40-51.84Q251.04-51.84 253.04-50L253.04-50L253.04-50Q255.04-48.16 255.04-44.80L255.04-44.80L255.04-44.80Q255.04-44.16 254.88-42.72L254.88-42.72L254.88-42.72Q253.60-35.60 251.76-25.60L251.76-25.60L251.76-25.60Q255.12-31.04 260.48-31.04L260.48-31.04L260.48-31.04Q265.84-31.04 268.72-27.96L268.72-27.96L268.72-27.96Q271.60-24.88 271.60-19.52L271.60-19.52L271.60-19.52Q271.60-10.08 266.48-4.68L266.48-4.68L266.48-4.68Q261.36 0.72 253.20 0.72zM252.64-1.44L252.64-1.44L252.64-1.44Q257.04-1.44 259.80-7.56L259.80-7.56L259.80-7.56Q262.56-13.68 262.56-22.80L262.56-22.80L262.56-22.80Q262.56-26.48 261.80-27.84L261.80-27.84L261.80-27.84Q261.04-29.20 259.04-29.20L259.04-29.20L259.04-29.20Q257.04-29.20 254.92-26.80L254.92-26.80L254.92-26.80Q252.80-24.40 251.84-22.28L251.84-22.28L251.84-22.28Q250.88-20.16 250.88-19.84L250.88-19.84L250.72-19.84L250.72-19.84Q248.72-9.36 247.76-4L247.76-4L247.76-4Q249.12-1.44 252.64-1.44" fill="#51cacc" stroke="none" stroke-width="none" transform="translate(-205.39999389648438,21.21007984924316)" style="fill: rgb(81, 202, 204);"></path></g><g class="path" style="transform: scale(0.91); transform-origin: 85.16px 5.65008px; animation: 1s linear -0.198s infinite normal forwards running breath-336e18e7-94e4-4ae1-bee4-3d6a98dbbaa0;"><path d="M277.20-27.28L276.00-28.24L276.00-28.24Q278.40-31.12 282.04-31.12L282.04-31.12L282.04-31.12Q285.68-31.12 287.68-29.28L287.68-29.28L287.68-29.28Q289.68-27.44 289.68-24.08L289.68-24.08L289.68-23.60L289.68-23.60Q293.28-31.12 299.04-31.12L299.04-31.12L299.04-31.12Q305.20-31.12 305.20-24.72L305.20-24.72L305.20-24.72Q305.20-22.08 303.44-19.12L303.44-19.12L303.44-19.12Q301.68-16.16 299.92-13.48L299.92-13.48L299.92-13.48Q298.16-10.80 298.16-8.72L298.16-8.72L296.24-8.72L296.24-8.72Q296.24-11.68 299.68-16.72L299.68-16.72L299.68-16.72Q303.12-21.76 303.12-24.52L303.12-24.52L303.12-24.52Q303.12-27.28 302.04-28.28L302.04-28.28L302.04-28.28Q300.96-29.28 298.84-29.28L298.84-29.28L298.84-29.28Q296.72-29.28 294.68-27.44L294.68-27.44L294.68-27.44Q292.64-25.60 291.28-22.80L291.28-22.80L291.28-22.80Q289.12-18.64 288.40-16L288.40-16L288.40-15.92L285.52 0L275.92 0L281.20-29.52L281.20-29.52Q278.80-29.28 277.20-27.28L277.20-27.28" fill="#51cacc" stroke="none" stroke-width="none" transform="translate(-205.39999389648438,21.21007984924316)" style="fill: rgb(157, 248, 113);"></path></g><g class="path" style="transform: scale(0.91); transform-origin: 118.76px 6.01008px; animation: 1s linear -0.132s infinite normal forwards running breath-336e18e7-94e4-4ae1-bee4-3d6a98dbbaa0;"><path d="M335.12 0.72L335.12 0.72L335.12 0.72Q328.08 0.72 327.44-5.44L327.44-5.44L327.44-5.44Q323.92 0.72 318.56 0.72L318.56 0.72L318.56 0.72Q313.20 0.72 310.04-2.52L310.04-2.52L310.04-2.52Q306.88-5.76 306.88-11.60L306.88-11.60L306.88-11.60Q306.88-20.72 311.36-25.92L311.36-25.92L311.36-25.92Q315.84-31.12 322.96-31.12L322.96-31.12L322.96-31.12Q328.80-31.12 330.72-25.60L330.72-25.60L330.72-25.60Q331.12-28 331.60-30.40L331.60-30.40L331.60-30.40Q337.52-30.40 340.40-30.88L340.40-30.88L341.44-31.12L335.92-0.88L335.92-0.88Q338.32-1.12 339.92-3.12L339.92-3.12L341.12-2.16L341.12-2.16Q338.72 0.72 335.12 0.72zM315.92-7.52L315.92-7.52Q315.92-3.92 316.84-2.52L316.84-2.52L316.84-2.52Q317.76-1.12 319.68-1.12L319.68-1.12L319.68-1.12Q321.60-1.12 323.60-3.20L323.60-3.20L323.60-3.20Q326.24-5.92 327.84-10.08L327.84-10.08L327.84-10.08Q328.08-11.12 328.76-15.08L328.76-15.08L328.76-15.08Q329.44-19.04 329.92-21.60L329.92-21.60L329.92-21.60Q329.68-24.64 328.24-26.88L328.24-26.88L328.24-26.88Q326.80-29.12 324.64-29.12L324.64-29.12L324.64-29.12Q320.72-29.12 318.32-22.12L318.32-22.12L318.32-22.12Q315.92-15.12 315.92-7.52L315.92-7.52" fill="#51cacc" stroke="none" stroke-width="none" transform="translate(-205.39999389648438,21.21007984924316)" style="fill: rgb(224, 255, 119);"></path></g><g class="path" style="transform: scale(0.91); transform-origin: 155.24px 5.65008px; animation: 1s linear -0.066s infinite normal forwards running breath-336e18e7-94e4-4ae1-bee4-3d6a98dbbaa0;"><path d="M347.28-27.28L346.08-28.24L346.08-28.24Q348.48-31.12 352.12-31.12L352.12-31.12L352.12-31.12Q355.76-31.12 357.76-29.28L357.76-29.28L357.76-29.28Q359.76-27.44 359.76-24.08L359.76-24.08L359.76-23.60L359.76-23.60Q363.36-31.12 369.12-31.12L369.12-31.12L369.12-31.12Q375.28-31.12 375.28-24.72L375.28-24.72L375.28-24.72Q375.28-22.08 373.52-19.12L373.52-19.12L373.52-19.12Q371.76-16.16 370-13.48L370-13.48L370-13.48Q368.24-10.80 368.24-8.72L368.24-8.72L366.32-8.72L366.32-8.72Q366.32-11.68 369.76-16.72L369.76-16.72L369.76-16.72Q373.20-21.76 373.20-24.52L373.20-24.52L373.20-24.52Q373.20-27.28 372.12-28.28L372.12-28.28L372.12-28.28Q371.04-29.28 368.92-29.28L368.92-29.28L368.92-29.28Q366.80-29.28 364.76-27.44L364.76-27.44L364.76-27.44Q362.72-25.60 361.36-22.80L361.36-22.80L361.36-22.80Q359.20-18.64 358.48-16L358.48-16L358.48-15.92L355.60 0L346 0L351.28-29.52L351.28-29.52Q348.88-29.28 347.28-27.28L347.28-27.28" fill="#51cacc" stroke="none" stroke-width="none" transform="translate(-205.39999389648438,21.21007984924316)" style="fill: rgb(222, 157, 214);"></path></g><g class="path" style="transform: scale(0.91); transform-origin: 189.16px 13.0101px; animation: 1s linear 0s infinite normal forwards running breath-336e18e7-94e4-4ae1-bee4-3d6a98dbbaa0;"><path d="M381.92-29.52L381.92-29.52L381.92-29.52Q380-29.52 377.92-27.28L377.92-27.28L376.72-28.24L376.72-28.24Q377.28-29.36 379.20-30.24L379.20-30.24L379.20-30.24Q381.12-31.12 383.44-31.12L383.44-31.12L383.44-31.12Q390.72-31.12 390.72-24.56L390.72-24.56L390.72-24.56Q390.72-21.76 389.20-15.40L389.20-15.40L389.20-15.40Q387.68-9.04 387.68-6.80L387.68-6.80L387.68-6.80Q387.68-2.96 390.88-2.96L390.88-2.96L390.88-2.96Q393.52-2.96 396.04-6.56L396.04-6.56L396.04-6.56Q398.56-10.16 400.16-16.24L400.16-16.24L402.80-30.40L402.80-30.40Q408.72-30.40 411.44-30.88L411.44-30.88L412.48-31.12L407.44-2.80L407.44-2.80Q406 5.44 400.76 10.08L400.76 10.08L400.76 10.08Q395.52 14.72 387.20 14.72L387.20 14.72L387.20 14.72Q382.16 14.72 379.40 13L379.40 13L379.40 13Q376.64 11.28 376.64 8.52L376.64 8.52L376.64 8.52Q376.64 5.76 378.32 4.12L378.32 4.12L378.32 4.12Q380 2.48 383.08 2.48L383.08 2.48L383.08 2.48Q386.16 2.48 388.80 3.48L388.80 3.48L388.80 3.48Q391.44 4.48 392.64 4.64L392.64 4.64L392.48 6.08L392.48 6.08Q391.12 5.92 388.56 4.96L388.56 4.96L388.56 4.96Q386 4 383.48 4L383.48 4L383.48 4Q380.96 4 379.64 5.12L379.64 5.12L379.64 5.12Q378.32 6.24 378.32 8.36L378.32 8.36L378.32 8.36Q378.32 10.48 380.64 11.80L380.64 11.80L380.64 11.80Q382.96 13.12 386.40 13.12L386.40 13.12L386.40 13.12Q394.72 13.12 396.64 3.12L396.64 3.12L398.64-7.92L398.64-7.92Q395.28-0.56 388.48-0.56L388.48-0.56L388.48-0.56Q383.84-0.56 381.32-3.20L381.32-3.20L381.32-3.20Q378.80-5.84 378.80-10.64L378.80-10.64L378.80-10.64Q378.80-13.12 380.28-19.56L380.28-19.56L380.28-19.56Q381.76-26 381.92-29.52" fill="#51cacc" stroke="none" stroke-width="none" transform="translate(-205.39999389648438,21.21007984924316)" style="fill: rgb(255, 112, 142);"></path></g></g>
</g>
</g>
<style id="breath-336e18e7-94e4-4ae1-bee4-3d6a98dbbaa0" data-anikit="">@keyframes breath-336e18e7-94e4-4ae1-bee4-3d6a98dbbaa0
{
  0% {
    animation-timing-function: cubic-bezier(0.9647,0.2413,-0.0705,0.7911);
    transform: scale(0.9099999999999999);
  }
  51% {
    animation-timing-function: cubic-bezier(0.9226,0.2631,-0.0308,0.7628);
    transform: scale(1.02994);
  }
  100% {
    transform: scale(0.9099999999999999);
  }
}</style></svg>